<svg width="176" height="24" viewBox="0 0 176 24" fill="none" xmlns="http://www.w3.org/2000/svg">
<path d="M29.0039 11.9842C29.0039 5.41001 33.9505 0.109863 41.5504 0.109863C49.1502 0.109863 54.0968 5.41001 54.0968 11.9842C54.0968 18.5935 49.1502 23.8936 41.5504 23.8936C33.9505 23.8936 29.0039 18.5903 29.0039 11.9842ZM47.9462 11.9842C47.9462 8.55697 45.5064 5.44504 41.5504 5.44504C37.5561 5.44504 35.1545 8.55379 35.1545 11.9842C35.1545 15.4115 37.5561 18.5935 41.5504 18.5935C45.5095 18.5903 47.9462 15.4115 47.9462 11.9842Z" fill="#FFCE39"/>
<path d="M22.6368 4.15507L17.8208 7.61418C17.2698 6.95803 16.5754 6.41338 15.7632 6.03753C14.9541 5.65849 14.0177 5.44188 12.9793 5.44188C12.9188 5.44188 12.8615 5.44188 12.8041 5.44507C12.7341 5.44507 12.6672 5.44826 12.5971 5.44826C9.17939 5.54381 6.74591 8.06647 6.59302 11.5957V11.6148C6.58665 11.739 6.58028 11.86 6.58028 11.9811C6.58028 12.1371 6.58346 12.2932 6.59939 12.4461C6.59939 12.5289 6.60576 12.6085 6.6185 12.6914C6.62169 12.7742 6.63442 12.8538 6.64398 12.9366C6.68538 13.2583 6.74591 13.5768 6.82236 13.8826C6.82236 13.8922 6.82554 13.9049 6.82872 13.9113C7.5008 16.5359 9.54887 18.533 12.5652 18.5871C10.2878 19.1668 7.2428 19.4153 3.62124 18.4852C3.46517 18.4438 3.30591 18.3992 3.14665 18.3546C2.99058 18.31 2.82813 18.2623 2.66887 18.2145C2.50643 18.1667 2.34717 18.1126 2.18154 18.0584L1.99998 17.9979C1.64961 17.3927 1.35657 16.7525 1.12406 16.0836C1.06354 15.918 1.00939 15.7491 0.955241 15.5771C0.907463 15.4147 0.859688 15.2459 0.81828 15.0803C0.799169 15.0038 0.776866 14.921 0.76094 14.8382C0.719532 14.6821 0.687685 14.526 0.655833 14.3668C0.620796 14.1916 0.592133 14.0164 0.569836 13.838C0.563466 13.803 0.55709 13.768 0.553905 13.7329C0.534794 13.6246 0.518866 13.5132 0.512496 13.4017C0.499755 13.3284 0.493389 13.2488 0.487019 13.1723C0.471093 13.029 0.461538 12.8825 0.458353 12.7391C0.451983 12.6436 0.442421 12.5417 0.442421 12.4461C0.436051 12.29 0.429688 12.134 0.429688 11.9779V11.946C0.429688 11.7517 0.432869 11.5606 0.44561 11.3663C0.45198 11.1657 0.467907 10.965 0.487019 10.7643C0.983907 5.56292 4.65006 1.37122 10.256 0.345593C10.3484 0.326482 10.4407 0.313743 10.5395 0.297817C10.6701 0.275521 10.8006 0.256409 10.9344 0.237298C11.0045 0.230927 11.0714 0.218184 11.1383 0.214999C11.1765 0.208629 11.2115 0.202262 11.2466 0.199077C11.3804 0.183151 11.5173 0.170409 11.6543 0.157668C12.0843 0.119446 12.527 0.103516 12.9761 0.103516C17.1041 0.106701 20.4486 1.67381 22.6368 4.15507Z" fill="#FFCE39"/>
<path d="M76.2497 8.23862C76.2497 12.5514 72.7874 15.6601 68.2262 15.6601H64.3403V23.3651H58.333V0.74707H68.2262C72.7842 0.74707 76.2497 3.85581 76.2497 8.23862ZM70.0991 8.23862C70.0991 6.29566 68.8632 5.16491 66.6018 5.16491H64.3403V11.2422H66.6018C68.8632 11.2422 70.0991 10.1115 70.0991 8.23862Z" fill="#457FC1"/>
<path d="M95.0106 18.345V23.3616H80.0625V0.743652H86.0698V18.3418H95.0106V18.345Z" fill="#457FC1"/>
<path d="M113.803 19.3674H105.395L104.05 23.3616H97.5845L106.49 0.743652H112.676L121.582 23.3616H115.151L113.803 19.3674ZM112.322 14.9145L109.602 6.75092L106.882 14.9145H112.322Z" fill="#457FC1"/>
<path d="M123.238 12.0193C123.238 5.44504 128.079 0.109863 135.536 0.109863C138.434 0.109863 140.941 0.957115 142.957 2.37134L139.813 7.07268C138.753 6.04705 137.233 5.44823 135.644 5.44823C131.72 5.44823 129.388 8.55697 129.388 12.0575C129.388 15.4497 131.72 18.5967 135.644 18.5967C137.233 18.5967 138.753 17.9596 139.813 16.9372L142.957 21.6385C140.944 23.0878 138.434 23.9 135.536 23.9C128.079 23.8936 123.238 18.5553 123.238 12.0193Z" fill="#457FC1"/>
<path d="M153.57 23.3616H147.563V0.743652H153.57V23.3616Z" fill="#457FC1"/>
<path d="M175.564 18.2367V23.3616H158.179V18.9438L167.579 5.86861H158.816V0.743652H175.143V4.94809L165.779 18.2367H175.564Z" fill="#457FC1"/>
<path d="M25.9336 11.1084V22.0304H21.6558V19.2338C21.3628 19.6097 21.0188 19.9696 20.6207 20.3136C20.3117 20.5843 19.9709 20.8455 19.5982 21.0971C18.9453 21.5494 18.1967 21.9731 17.3527 22.3744C14.951 23.5147 12.3201 24.0466 9.72733 23.5434C9.22725 23.451 8.72081 23.3172 8.22392 23.1388C5.6057 22.2088 3.35696 20.4314 1.98096 17.9948L2.00007 18.0011L2.18163 18.0617C2.34407 18.1158 2.50651 18.17 2.66896 18.2177C2.82822 18.2687 2.98748 18.3133 3.14674 18.3579C3.306 18.4057 3.46207 18.4502 3.62133 18.4885C7.24288 19.4185 10.2879 19.1669 12.5653 18.5904C12.5813 18.5904 12.5908 18.5872 12.6067 18.584C12.6195 18.5808 12.6322 18.5777 12.6513 18.5681C14.0942 18.1954 15.2186 17.6985 15.9894 17.2908C16.0754 17.2462 16.155 17.2017 16.2347 17.1603C16.343 17.0997 16.4481 17.0424 16.5468 16.9787C16.5691 16.9628 16.5882 16.9532 16.6105 16.9373C16.6933 16.8895 16.7634 16.8449 16.8271 16.8035C16.9386 16.7303 17.0246 16.6697 17.0819 16.6283C17.1201 16.6028 17.1456 16.5837 17.1552 16.5774C17.1615 16.5742 17.1679 16.571 17.1679 16.571C17.6584 16.2206 18.1044 15.8257 18.5057 15.3861H15.0179V11.1084H25.9336Z" fill="#457FC1"/>
</svg>
