<svg width="311" height="44" viewBox="0 0 311 44" fill="none" xmlns="http://www.w3.org/2000/svg">
<path d="M51.0564 21.9715C51.0564 10.3328 59.8136 0.949707 73.268 0.949707C86.7224 0.949707 95.4796 10.3328 95.4796 21.9715C95.4796 33.6722 86.7224 43.0553 73.268 43.0553C59.8136 43.0553 51.0564 33.6665 51.0564 21.9715ZM84.5909 21.9715C84.5909 15.904 80.2715 10.3948 73.268 10.3948C66.1968 10.3948 61.9451 15.8984 61.9451 21.9715C61.9451 28.0389 66.1968 33.6722 73.268 33.6722C80.2771 33.6665 84.5909 28.0389 84.5909 21.9715Z" fill="#FFCE39"/>
<path d="M39.7845 8.11115L31.2586 14.235C30.283 13.0734 29.0537 12.1091 27.6158 11.4437C26.1835 10.7727 24.5257 10.3892 22.6874 10.3892C22.5803 10.3892 22.4788 10.3892 22.3773 10.3949C22.2532 10.3949 22.1348 10.4005 22.0108 10.4005C15.9602 10.5697 11.6521 15.0357 11.3815 21.2836V21.3174C11.3702 21.5373 11.3589 21.7516 11.3589 21.9659C11.3589 22.2422 11.3645 22.5185 11.3927 22.7892C11.3927 22.9358 11.404 23.0768 11.4266 23.2234C11.4322 23.37 11.4548 23.511 11.4717 23.6576C11.545 24.2271 11.6521 24.791 11.7875 25.3323C11.7875 25.3492 11.7931 25.3718 11.7987 25.3831C12.9885 30.0295 16.6144 33.5651 21.9544 33.661C17.9226 34.6872 12.5318 35.1271 6.12038 33.4805C5.84407 33.4072 5.56213 33.3283 5.28019 33.2493C5.00388 33.1704 4.7163 33.0858 4.43435 33.0012C4.14677 32.9166 3.86483 32.8208 3.5716 32.7249L3.25018 32.6178C2.62991 31.5464 2.11113 30.413 1.69949 29.2288C1.59235 28.9356 1.49649 28.6367 1.40063 28.3322C1.31604 28.0446 1.23147 27.7458 1.15816 27.4525C1.12433 27.3172 1.08484 27.1706 1.05665 27.024C0.983341 26.7477 0.92696 26.4714 0.870571 26.1894C0.808543 25.8793 0.7578 25.5692 0.718327 25.2534C0.70705 25.1914 0.695761 25.1293 0.690123 25.0673C0.656289 24.8756 0.628092 24.6782 0.616814 24.4809C0.594259 24.3512 0.582988 24.2102 0.571711 24.0748C0.543516 23.8211 0.526602 23.5617 0.520963 23.308C0.509685 23.1388 0.492758 22.9584 0.492758 22.7892C0.48148 22.5129 0.470215 22.2366 0.470215 21.9603V21.9039C0.470215 21.5599 0.475847 21.2216 0.498402 20.8776C0.50968 20.5223 0.537877 20.1671 0.571711 19.8118C1.45138 10.6035 7.94175 3.18276 17.8662 1.36704C18.0297 1.3332 18.1932 1.31065 18.368 1.28246C18.5992 1.24299 18.8304 1.20915 19.0673 1.17532C19.1913 1.16404 19.3097 1.14148 19.4282 1.13584C19.4958 1.12456 19.5578 1.11329 19.6199 1.10765C19.8567 1.07946 20.0992 1.0569 20.3417 1.03435C21.1029 0.966679 21.8867 0.938477 22.6818 0.938477C29.9898 0.944115 35.9106 3.71845 39.7845 8.11115Z" fill="#FFCE39"/>
<path d="M134.698 15.3403C134.698 22.9754 128.569 28.4789 120.494 28.4789H113.614V42.1194H102.979V2.07764H120.494C128.563 2.07764 134.698 7.58119 134.698 15.3403ZM123.81 15.3403C123.81 11.9006 121.622 9.89876 117.618 9.89876H113.614V20.6578H117.618C121.622 20.6578 123.81 18.656 123.81 15.3403Z" fill="white"/>
<path d="M167.911 33.2323V42.1135H141.448V2.07178H152.083V33.2266H167.911V33.2323Z" fill="white"/>
<path d="M201.181 35.0424H186.294L183.915 42.1135H172.468L188.234 2.07178H199.185L214.951 42.1135H203.566L201.181 35.0424ZM198.559 27.1592L193.743 12.7067L188.928 27.1592H198.559Z" fill="white"/>
<path d="M217.883 22.0335C217.883 10.3948 226.454 0.949707 239.655 0.949707C244.786 0.949707 249.224 2.44964 252.794 4.9533L247.228 13.2763C245.35 11.4606 242.661 10.4005 239.847 10.4005C232.9 10.4005 228.772 15.904 228.772 22.1012C228.772 28.1066 232.9 33.6778 239.847 33.6778C242.661 33.6778 245.35 32.55 247.228 30.74L252.794 39.063C249.23 41.6287 244.786 43.0666 239.655 43.0666C226.454 43.0553 217.883 33.6045 217.883 22.0335Z" fill="white"/>
<path d="M271.582 42.1135H260.947V2.07178H271.582V42.1135Z" fill="white"/>
<path d="M310.519 33.0406V42.1135H279.742V34.2924L296.382 11.1447H280.87V2.07178H309.775V9.5151L293.196 33.0406H310.519Z" fill="white"/>
<path d="M45.6205 20.4209V39.7566H38.0475V34.8057C37.5287 35.4711 36.9197 36.1083 36.2148 36.7173C35.6679 37.1966 35.0645 37.659 34.4048 38.1045C33.2488 38.9052 31.9237 39.6551 30.4293 40.3657C26.1776 42.3844 21.5199 43.3261 16.9298 42.4351C16.0445 42.2716 15.148 42.0347 14.2683 41.719C9.63312 40.0724 5.65206 36.9259 3.21606 32.6122L3.2499 32.6235L3.57132 32.7306C3.8589 32.8265 4.14648 32.9223 4.43407 33.0069C4.71601 33.0971 4.99796 33.1761 5.2799 33.255C5.56184 33.3396 5.83814 33.4185 6.12009 33.4862C12.5315 35.1328 17.9223 34.6873 21.9541 33.6666C21.9823 33.6666 21.9992 33.661 22.0274 33.6554C22.0499 33.6497 22.0725 33.6441 22.1063 33.6272C24.6608 32.9674 26.6513 32.0877 28.0159 31.366C28.1682 31.287 28.3091 31.2081 28.4501 31.1348C28.6418 31.0277 28.8279 30.9261 29.0027 30.8134C29.0422 30.7852 29.076 30.7683 29.1155 30.7401C29.2621 30.6555 29.3861 30.5765 29.4989 30.5032C29.6963 30.3735 29.8485 30.2664 29.95 30.1931C30.0177 30.148 30.0628 30.1141 30.0797 30.1029C30.091 30.0972 30.1023 30.0916 30.1023 30.0916C30.9707 29.4713 31.7601 28.7721 32.4706 27.9939H26.296V20.4209H45.6205Z" fill="white"/>
</svg>
