<svg width="56" height="56" viewBox="0 0 56 56" fill="none" xmlns="http://www.w3.org/2000/svg">
<rect width="56" height="56" rx="28" fill="#ECECEC"/>
<path d="M33.5185 13.9995C33.5185 13.9995 31.4365 14.0499 29.5274 15.959C27.6183 17.8681 27.9403 20.44 27.9403 20.44C27.9403 20.44 29.8301 20.7856 31.8471 18.7686C33.8641 16.7517 33.5185 13.9995 33.5185 13.9995Z" fill="black"/>
<path d="M28.1586 22.0676C26.7513 22.058 25.8869 20.8429 23.4903 20.8429C21.3338 20.8429 19.1721 22.2342 18.2529 23.5805C17.338 24.9204 16.5455 26.3901 16.5455 29.3726C16.5455 32.3551 17.9816 37.4844 21.5128 40.9568C22.1175 41.5514 22.9181 41.9984 23.8313 42.0261C25.4738 42.0758 26.4824 40.8463 28.5572 40.8463C30.632 40.8463 31.2563 42.0261 33.1294 42.0261C33.9811 42.0261 34.9525 41.6382 35.8958 40.635C37.1061 39.3479 38.6079 36.8965 39.3729 34.5451C39.3729 34.5451 35.542 33.0656 35.5884 28.801C35.6268 25.2662 38.6285 23.5276 38.6285 23.5276C38.6285 23.5276 36.8755 20.7324 33.1486 20.7324C30.5744 20.7517 29.4216 22.0762 28.1586 22.0676Z" fill="black"/>
</svg>
