<svg width="24" height="24" viewBox="0 0 24 24" fill="none" xmlns="http://www.w3.org/2000/svg">
<path d="M5.6962 6.35836L4.97602 7.07854C4.78664 7.26796 4.78664 7.57504 4.97602 7.76451C5.07075 7.85924 5.19492 7.90659 5.319 7.90659C5.44312 7.90659 5.5673 7.85924 5.66194 7.76451L6.38212 7.04432C6.57154 6.8549 6.57154 6.54783 6.38212 6.35836C6.1928 6.16894 5.88567 6.16898 5.6962 6.35836Z" fill="black"/>
<path d="M3.26128 8.7934L2.81785 9.23684C2.62843 9.42621 2.62843 9.73333 2.81785 9.92276C2.91258 10.0175 3.03671 10.0648 3.16078 10.0648C3.28491 10.0648 3.40908 10.0175 3.50372 9.92276L3.94716 9.47932C4.13653 9.28994 4.13653 8.98282 3.94716 8.7934C3.75778 8.60402 3.45071 8.60402 3.26128 8.7934Z" fill="black"/>
<path d="M23.8579 8.64534L18.2358 3.02326C18.0464 2.83388 17.7393 2.83388 17.5499 3.02326L15.2702 5.30302C15.1792 5.39395 15.1281 5.51733 15.1281 5.64595C15.1281 5.77458 15.1792 5.89795 15.2702 5.98889L15.4615 6.18023L14.7817 6.86001C14.5396 7.10212 14.2349 7.24425 13.8246 7.30584L9.959 7.31123C9.69256 7.31123 9.44558 7.39659 9.24326 7.54106L8.93619 7.23403L9.12589 7.04433C9.21683 6.95339 9.26797 6.83001 9.26797 6.70139C9.26797 6.57276 9.21683 6.44939 9.12589 6.35845L6.45004 3.68265C6.26071 3.49322 5.95354 3.49322 5.76411 3.68265L0.142078 9.30468C0.0511405 9.39562 0 9.51899 0 9.64762C0 9.77624 0.0511405 9.89962 0.142078 9.99055L2.81793 12.6664C2.91267 12.7611 3.03679 12.8085 3.16087 12.8085C3.28499 12.8085 3.40917 12.7611 3.50381 12.6664L3.66384 12.5064L4.37577 13.2184C4.61076 13.4533 4.79249 13.7289 4.91591 14.0375L4.94343 14.1062C5.11588 14.5375 5.3699 14.9226 5.6983 15.251L11.1498 20.7025C11.4272 20.9799 11.7916 21.1187 12.1561 21.1187C12.5205 21.1187 12.8849 20.98 13.1623 20.7025C13.3018 20.563 13.4066 20.4016 13.4764 20.2293C13.9979 20.4582 14.6297 20.3596 15.0561 19.9331C15.1836 19.8056 15.2841 19.6582 15.3547 19.4978C15.894 19.7895 16.5835 19.7078 17.0387 19.2526C17.4944 18.7968 17.5776 18.1075 17.2884 17.5665C17.4435 17.4982 17.5885 17.4007 17.7151 17.2742C17.7156 17.2737 17.7187 17.2706 17.7192 17.2701C18.2768 16.7125 18.2768 15.8052 17.7192 15.2477L17.684 15.2125L18.6011 14.2954C18.8739 14.0226 19.2607 13.5333 19.452 13.0549L19.4813 12.9833C19.6043 12.6756 19.7862 12.4002 20.0219 12.1645L20.7339 11.4525L20.8923 11.611C20.9832 11.7019 21.1066 11.7531 21.2352 11.7531C21.3639 11.7531 21.4872 11.7019 21.5782 11.611L23.8579 9.33121C24.0473 9.14188 24.0473 8.83476 23.8579 8.64534ZM3.3209 11.4775C3.32067 11.4778 3.32043 11.4781 3.3201 11.4784L3.16082 11.6376L1.17094 9.64762L6.1071 4.71146L8.09708 6.70139L7.90817 6.8903C7.90794 6.89053 7.90761 6.89076 7.90733 6.89105L3.3209 11.4775ZM17.035 16.5826C17.0345 16.5831 17.0314 16.5861 17.0309 16.5867C16.8527 16.7649 16.5712 16.7628 16.3902 16.5817C16.3625 16.554 13.5546 13.7657 13.5546 13.7657C13.5009 13.712 13.4375 13.674 13.3702 13.6508C13.2447 13.6075 13.1052 13.6165 12.986 13.6791C12.9438 13.7014 12.9041 13.7302 12.8686 13.7657C12.7621 13.8722 12.7155 14.016 12.7288 14.1552C12.7303 14.1706 12.7325 14.186 12.7354 14.2013C12.7414 14.2318 12.7503 14.2619 12.7621 14.2911C12.7857 14.3495 12.8212 14.4042 12.8686 14.4516C12.8686 14.4516 16.3835 17.9628 16.4038 17.9776C16.5296 18.1571 16.5129 18.4067 16.3527 18.5667C16.1761 18.7434 15.8886 18.7434 15.712 18.5667L11.9566 14.831C11.9211 14.7955 11.8814 14.7666 11.8392 14.7444C11.6562 14.6482 11.4245 14.6771 11.2707 14.831C11.1562 14.9454 11.1115 15.1026 11.1352 15.251C11.1508 15.3484 11.1956 15.4419 11.2707 15.5169L14.4401 18.6862C14.5458 18.862 14.5226 19.0947 14.3701 19.2472C14.2845 19.3328 14.1708 19.3799 14.0498 19.3799C13.9288 19.3799 13.815 19.3327 13.7295 19.2472L10.2404 15.7778C10.051 15.5884 9.74389 15.5884 9.55442 15.7778C9.54261 15.7896 9.5315 15.8019 9.52114 15.8146C9.36575 16.0051 9.37686 16.2861 9.55442 16.4637L12.5464 19.4556C12.6521 19.6314 12.6289 19.864 12.4764 20.0165C12.2997 20.1932 12.0123 20.1931 11.8357 20.0165L6.38422 14.565C6.14924 14.33 5.9675 14.0544 5.84413 13.7459L5.81661 13.6771C5.64411 13.2459 5.39015 12.8608 5.06174 12.5323L4.3498 11.8204L8.25031 7.9199L8.73158 8.40112C8.72586 8.4487 8.72253 8.49698 8.72234 8.54606C8.72234 8.55023 8.72234 8.55445 8.72244 8.55867C8.74555 9.55973 9.56993 10.3742 10.5624 10.3742L11.4699 10.3702L17.0334 15.9337C17.2127 16.113 17.2127 16.4049 17.035 16.5826ZM19.3359 11.479C19.0068 11.8081 18.7527 12.1934 18.582 12.6205L18.5527 12.6927C18.4426 12.968 18.1804 13.3468 17.9152 13.612L17.0004 14.5289L14.4228 11.9514C15.3193 11.9308 15.8306 11.6766 15.8607 11.6613L15.4189 10.7977L15.4237 10.7953C15.4161 10.7989 14.666 11.1502 13.3528 10.8813L12.0136 9.5421L12.0093 9.54398C11.9191 9.45792 11.7991 9.41845 11.674 9.41845C11.6733 9.41845 11.6726 9.41845 11.6719 9.41845L10.5604 9.41381C10.0951 9.41381 9.70737 9.01898 9.69261 8.54385C9.69589 8.40103 9.81678 8.28135 9.95975 8.28135L13.8603 8.27592C13.8824 8.27592 13.9044 8.27437 13.9262 8.27137C14.5637 8.18315 15.0679 7.94587 15.4677 7.54607L16.1475 6.86634L20.048 10.7669L19.3359 11.479ZM21.2352 10.5822L21.077 10.424C21.0769 10.4239 21.0769 10.4238 21.0768 10.4237L16.4904 5.83734C16.4903 5.83725 16.4903 5.8372 16.4902 5.83711L16.2991 5.646L17.8929 4.05216L22.829 8.98828L21.2352 10.5822Z" fill="black"/>
</svg>
