<svg width="56" height="56" viewBox="0 0 56 56" fill="none" xmlns="http://www.w3.org/2000/svg">
<rect width="56" height="56" rx="28" fill="#ECECEC"/>
<path fill-rule="evenodd" clip-rule="evenodd" d="M43.2727 28.0931C43.2727 19.6076 36.4343 12.7275 28 12.7275C19.5658 12.7275 12.7273 19.6076 12.7273 28.0931C12.7273 35.7619 18.3115 42.119 25.6139 43.273V32.5358H21.735V28.0931H25.6139V24.7071C25.6139 20.8565 27.8948 18.7281 31.3827 18.7281C33.0537 18.7281 34.802 19.0284 34.802 19.0284V22.8099H32.8754C30.979 22.8099 30.3861 23.994 30.3861 25.2106V28.093H34.6215L33.9449 32.5357H30.386V43.2729C37.6884 42.121 43.2727 35.764 43.2727 28.0931Z" fill="#1E88E5"/>
</svg>
