<svg width="88" height="57" viewBox="0 0 88 57" fill="none" xmlns="http://www.w3.org/2000/svg">
<g clip-path="url(#clip0_3528_70474)">
<path d="M84.8727 9.31789L82.4478 28.501L74.9345 27.5512L75.5554 22.6394C74.9573 23.2345 74.2732 23.7902 73.4975 24.306C72.8948 24.713 72.2382 25.096 71.5278 25.4553C70.2805 26.1047 68.8718 26.6825 67.3002 27.2C62.8288 28.6696 58.0898 29.0197 53.6477 27.5602C52.7899 27.2869 51.9301 26.9395 51.097 26.5159C46.7049 24.301 43.1499 20.6801 41.2741 16.0949L41.3063 16.1104L41.6117 16.257C41.885 16.3882 42.1583 16.5193 42.433 16.6393C42.7014 16.7642 42.9712 16.8778 43.241 16.9915C43.5101 17.1108 43.7744 17.2238 44.0456 17.3263C50.1999 19.7639 55.604 19.998 59.732 19.491C59.7599 19.4946 59.7774 19.4911 59.8061 19.489C59.8292 19.4863 59.8523 19.4835 59.888 19.471C62.5049 19.1368 64.5901 18.5137 66.0344 17.9687C66.1954 17.9095 66.3451 17.8489 66.4942 17.7938C66.6978 17.7116 66.8952 17.6342 67.0828 17.5443C67.1255 17.5212 67.1611 17.5087 67.2038 17.4857C67.3599 17.4201 67.4929 17.3574 67.6139 17.2988C67.826 17.1949 67.9905 17.1077 68.1004 17.0477C68.1732 17.0114 68.2222 16.9835 68.2404 16.9744C68.2523 16.9703 68.2642 16.9661 68.2642 16.9661C69.2035 16.4596 70.0744 15.8649 70.8769 15.182L64.751 14.4076L65.7008 6.89439L84.8727 9.31789Z" fill="#FFCE39"/>
<path d="M58.0089 19.3422C53.4578 17.5289 50.2222 13.12 47.2356 9.43999C44.1245 5.61777 37.8667 -3.71556 32.2667 1.58221C29.8489 3.87555 30.24 7.2711 31.1822 10.1333C32.2311 13.3155 33.6178 16.3911 35.1645 19.36C38.0267 24.9067 41.5111 30.0978 44.3022 35.68C45.4222 37.92 46.8622 40.48 46.4711 43.04C46.2222 43.0222 45.9378 42.9511 45.7778 42.9155C44.32 42.5955 42.9333 41.8844 41.6356 41.1555C36.48 38.2222 32.6756 33.4578 29.4578 28.5689C27.68 25.8844 26.0445 23.1111 24.3556 20.3733C22.6845 17.6889 21.0134 14.7733 18.6134 12.6578C13.2445 7.98221 6.00891 9.63555 2.77335 15.8933C-4.40887 29.7422 3.57335 45.2978 13.2267 55.4844C17.1734 59.6444 23.4489 53.3511 19.52 49.1911C13.4222 42.7555 8.0178 34.4355 9.1378 25.1555C9.28002 23.9467 10.3111 17.8133 12.3378 18.9689C13.8845 19.8578 14.9334 22.0978 15.84 23.52C17.28 25.7778 18.6489 28.0889 20.0711 30.3644C25.1378 38.4533 31.1822 46.4889 40.2311 50.3289C44.8533 52.2844 50.5956 53.0311 53.7778 48.2311C56.9067 43.5378 55.1111 37.8667 52.96 33.2089C51.2711 29.5289 49.2089 26.0267 47.1645 22.5244C49.6711 24.7644 52.4267 26.5955 55.6622 27.8933C57.8845 28.7822 60.5511 26.9155 61.1378 24.7822C61.8134 22.2755 60.2489 20.2489 58.0089 19.3422ZM46.4178 43.2711C46.4178 43.2889 46.4 43.2889 46.4178 43.2711V43.2711Z" fill="#FFCE39"/>
<path d="M47.2711 24.0001C52.48 24.0001 56.7111 19.769 56.7111 14.5601C56.7111 9.35123 52.48 5.12012 47.2711 5.12012C42.0622 5.12012 37.8311 9.35123 37.8311 14.5601C37.8311 19.769 42.0622 24.0001 47.2711 24.0001ZM47.2711 6.8979C51.5022 6.8979 54.9333 10.329 54.9333 14.5601C54.9333 18.7912 51.5022 22.2223 47.2711 22.2223C43.04 22.2223 39.6089 18.7912 39.6089 14.5601C39.6089 10.329 43.04 6.8979 47.2711 6.8979Z" fill="#0E0E2C"/>
<path d="M13.4578 37.1201C15.1111 32.6579 16.2133 27.9823 16.7289 23.2357L23.8756 30.3468C24.0178 30.489 24.2133 30.5779 24.4267 30.5779C24.4622 30.5779 24.4978 30.5779 24.5511 30.5601C24.7822 30.5246 24.9956 30.3646 25.1022 30.1512C26.56 27.2535 25.9911 23.7512 23.6978 21.4579L23.0756 20.8357H28.48C28.9067 20.8357 29.2622 20.4979 29.2622 20.0712C29.2622 19.9823 29.2444 19.8935 29.2089 19.8223C28.1956 16.7468 25.3156 14.6668 22.08 14.6668H21.0844L24.9244 10.809C25.2267 10.5068 25.2267 10.0268 24.9244 9.72456C24.8533 9.65345 24.8 9.6179 24.7111 9.58234C21.8133 8.12456 18.3111 8.69345 16.0356 10.9868L15.2889 11.7157C15.0578 11.9646 14.8267 12.2135 14.6311 12.4979C14.4178 12.2135 14.2044 11.9646 13.9556 11.7157L13.2267 10.9868C10.9333 8.69345 7.43111 8.12456 4.55111 9.58234C4.16 9.76012 4 10.2223 4.19556 10.6135C4.23111 10.6846 4.28444 10.7557 4.33778 10.809L8.19556 14.6668H7.18222C3.94667 14.6668 1.06667 16.7468 0.0355556 19.8223C-0.0888889 20.2312 0.124444 20.6579 0.533333 20.8001C0.604444 20.8179 0.693333 20.8357 0.764444 20.8357H6.18667L5.54667 21.4579C3.25333 23.7512 2.68444 27.2535 4.14222 30.1512C4.24889 30.3646 4.46222 30.5246 4.71111 30.5601C4.74667 30.5779 4.78222 30.5779 4.83556 30.5779C5.03111 30.5779 5.22667 30.489 5.36889 30.3468L12.0356 23.7157C11.52 28.3735 10.2044 32.9068 8.19556 37.1201H0V38.8979H7.28889C6.32889 40.6935 5.20889 42.4179 3.98222 44.0712C2.95111 43.8046 1.90222 43.5912 0.853333 43.4312L0.373333 43.3779L0.213333 44.9068L0.657778 44.9601C1.44 45.0668 2.20444 45.2268 2.95111 45.4046C2.80889 45.6001 2.64889 45.7957 2.48889 45.9735L3.66222 46.969C5.76 44.4801 7.55556 41.7601 9.03111 38.8979C9.33333 38.3112 9.63556 37.7246 9.90222 37.1201C12.0711 32.3912 13.3867 27.2712 13.7422 22.0268L14.6311 21.1557L15.2889 21.8135C14.8622 27.0757 13.6889 32.2135 11.8222 37.1201C11.6089 37.7068 11.36 38.3112 11.1111 38.8979C9.61778 42.489 7.75111 45.9023 5.52889 49.1379L6.68444 49.9379L6.79111 50.0268C6.80889 49.9912 6.82667 49.9735 6.84444 49.9379C7.32444 49.2623 7.76889 48.569 8.21333 47.8579C8.21333 47.8401 8.23111 47.8401 8.23111 47.8401C8.24889 47.8046 8.26667 47.7868 8.28444 47.7512C8.35556 47.6268 8.44444 47.4846 8.53333 47.3423C12.1422 49.0668 15.3067 51.5557 17.8489 54.649L19.04 53.6712C17.8133 52.1601 16.3911 50.8268 14.8622 49.6179C19.4667 48.0001 35.6978 43.1823 47.6444 50.809L48.6044 49.3157C34.5778 40.3557 15.7867 47.289 13.2089 48.3201L11.6622 47.2712C10.9156 46.8268 10.1333 46.4001 9.33333 46.0268C10.6489 43.7335 11.8044 41.3512 12.8 38.8979H64V37.1201H13.4578ZM1.93778 19.289C3.00444 17.3868 4.99556 16.2135 7.18222 16.2135H8.21333C10.1511 16.2135 11.9644 17.1557 13.0844 18.7201C11.4844 18.3823 9.81333 18.5957 8.32 19.289H1.93778ZM5.12 28.4268C4.51556 26.3468 5.10222 24.089 6.63111 22.5601L7.37778 21.8135C8.48 20.7112 9.99111 20.089 11.5556 20.1068C12.1244 20.1068 12.6933 20.1779 13.2622 20.3379L5.12 28.4268ZM13.1733 16.5335C12.48 15.929 11.68 15.4668 10.8267 15.1468L6.25778 10.5601C8.35556 9.95567 10.5956 10.5423 12.1422 12.0712L12.8711 12.8179C13.2089 13.1557 13.5111 13.5468 13.76 13.9735C13.4044 14.7912 13.2089 15.6623 13.1733 16.5335ZM24.1422 28.4268L16 20.3557C18.08 19.7335 20.3378 20.2846 21.8844 21.8135L22.6133 22.5601C24.16 24.089 24.7467 26.3468 24.1422 28.4268ZM22.08 16.2135C24.2489 16.2135 26.2578 17.3868 27.3067 19.289H20.9422C19.4489 18.5957 17.7778 18.3823 16.16 18.7201C17.28 17.1557 19.0933 16.2135 21.0311 16.2135H22.08ZM14.8089 17.9912C14.4356 16.1068 15.04 14.169 16.3733 12.8179L17.12 12.0712C18.6489 10.5423 20.9067 9.95567 23.0044 10.5601L18.4356 15.1468C16.96 15.6801 15.68 16.6935 14.8089 17.9912Z" fill="#0E0E2C"/>
<path d="M58.8089 41.8491H46.7733V43.6269H58.8089V41.8491Z" fill="#0E0E2C"/>
</g>
<defs>
<clipPath id="clip0_3528_70474">
<rect width="88" height="57" fill="white"/>
</clipPath>
</defs>
</svg>
