<svg width="56" height="56" viewBox="0 0 56 56" fill="none" xmlns="http://www.w3.org/2000/svg">
<rect width="56" height="56" rx="28" fill="#ECECEC"/>
<g clip-path="url(#clip0_5459_187094)">
<path d="M40.6896 28.3002C40.6896 27.4165 40.618 26.5281 40.4651 25.6587H28.2031V30.6648H35.225C34.9336 32.2793 33.9974 33.7076 32.6264 34.6152V37.8634H36.8157C39.2757 35.5992 40.6896 32.2554 40.6896 28.3002Z" fill="#4285F4"/>
<path d="M28.2032 41.0021C31.7093 41.0021 34.6662 39.8509 36.8205 37.8637L32.6313 34.6155C31.4657 35.4085 29.961 35.8575 28.208 35.8575C24.8164 35.8575 21.9408 33.5694 20.909 30.4932H16.5861V33.8417C18.7929 38.2315 23.2879 41.0021 28.2032 41.0021Z" fill="#34A853"/>
<path d="M20.9041 30.4929C20.3595 28.8784 20.3595 27.1301 20.9041 25.5155V22.167H16.5859C14.742 25.8403 14.742 30.1681 16.5859 33.8414L20.9041 30.4929Z" fill="#FBBC04"/>
<path d="M28.2032 20.1464C30.0566 20.1178 31.8479 20.8152 33.1901 22.0954L36.9017 18.3838C34.5515 16.1769 31.4323 14.9636 28.2032 15.0019C23.2879 15.0019 18.7929 17.7724 16.5861 22.167L20.9043 25.5155C21.9313 22.4345 24.8117 20.1464 28.2032 20.1464Z" fill="#EA4335"/>
</g>
<defs>
<clipPath id="clip0_5459_187094">
<rect width="26" height="26" fill="white" transform="translate(15 15.001)"/>
</clipPath>
</defs>
</svg>
