<svg width="22" height="21" viewBox="0 0 22 21" fill="none" xmlns="http://www.w3.org/2000/svg">
<path fill-rule="evenodd" clip-rule="evenodd" d="M8 0.25C5.37665 0.25 3.25 2.37665 3.25 5C3.25 7.62335 5.37665 9.75 8 9.75C10.6234 9.75 12.75 7.62335 12.75 5C12.75 2.37665 10.6234 0.25 8 0.25ZM4.75 5C4.75 3.20507 6.20507 1.75 8 1.75C9.79493 1.75 11.25 3.20507 11.25 5C11.25 6.79493 9.79493 8.25 8 8.25C6.20507 8.25 4.75 6.79493 4.75 5Z" fill="#0E0E2C"/>
<path d="M16.6517 7.59099C16.3588 7.2981 15.8839 7.2981 15.591 7.59099C15.2981 7.88388 15.2981 8.35876 15.591 8.65165L17.182 10.2426L15.591 11.8336C15.2981 12.1265 15.2981 12.6014 15.591 12.8943C15.8839 13.1872 16.3588 13.1872 16.6517 12.8943L18.2427 11.3033L19.8337 12.8943C20.1266 13.1872 20.6014 13.1872 20.8943 12.8943C21.1872 12.6014 21.1872 12.1265 20.8943 11.8336L19.3033 10.2426L20.8943 8.65165C21.1872 8.35876 21.1872 7.88388 20.8943 7.59099C20.6014 7.2981 20.1266 7.2981 19.8337 7.59099L18.2427 9.18198L16.6517 7.59099Z" fill="#0E0E2C"/>
<path fill-rule="evenodd" clip-rule="evenodd" d="M5 11.25C2.37665 11.25 0.25 13.3766 0.25 16C0.25 18.6234 2.37665 20.75 5 20.75H11C13.6234 20.75 15.75 18.6234 15.75 16C15.75 13.3766 13.6234 11.25 11 11.25H5ZM1.75 16C1.75 14.2051 3.20507 12.75 5 12.75H11C12.7949 12.75 14.25 14.2051 14.25 16C14.25 17.7949 12.7949 19.25 11 19.25H5C3.20507 19.25 1.75 17.7949 1.75 16Z" fill="#0E0E2C"/>
</svg>
