<svg width="24" height="24" viewBox="0 0 24 24" fill="none" xmlns="http://www.w3.org/2000/svg">
<path d="M10.3999 2.3999C5.9911 2.3999 2.3999 5.9911 2.3999 10.3999C2.3999 14.8087 5.9911 18.3999 10.3999 18.3999C12.3171 18.3999 14.0778 17.7191 15.4577 16.589L20.2343 21.3655C20.308 21.4423 20.3963 21.5036 20.494 21.5458C20.5917 21.5881 20.6968 21.6104 20.8033 21.6115C20.9097 21.6125 21.0153 21.5924 21.1138 21.5521C21.2124 21.5119 21.3019 21.4524 21.3772 21.3772C21.4524 21.3019 21.5119 21.2124 21.5521 21.1138C21.5924 21.0153 21.6125 20.9097 21.6115 20.8033C21.6104 20.6968 21.5881 20.5917 21.5458 20.494C21.5036 20.3963 21.4423 20.308 21.3655 20.2343L16.589 15.4577C17.7191 14.0778 18.3999 12.3171 18.3999 10.3999C18.3999 5.9911 14.8087 2.3999 10.3999 2.3999ZM10.3999 3.9999C13.944 3.9999 16.7999 6.8558 16.7999 10.3999C16.7999 13.944 13.944 16.7999 10.3999 16.7999C6.8558 16.7999 3.9999 13.944 3.9999 10.3999C3.9999 6.8558 6.8558 3.9999 10.3999 3.9999Z" fill="#0E0E2C"/>
</svg>
