<svg width="20" height="22" viewBox="0 0 20 22" fill="none" xmlns="http://www.w3.org/2000/svg">
<path fill-rule="evenodd" clip-rule="evenodd" d="M4.77141 3.04167C4.77141 1.49987 6.02129 0.25 7.56308 0.25H12.7291C14.1098 0.25 15.2291 1.36929 15.2291 2.75C15.2291 3.30228 15.6768 3.75 16.2291 3.75H16.8184C18.4033 3.75 19.7972 4.97999 19.7326 6.66561C19.6498 8.82667 19.2301 12.2931 17.5468 15.3608C17.0905 16.1923 16.4811 17.0092 15.8223 17.7703L15.7727 17.8276C14.825 18.9226 14.0349 19.8356 13.1854 20.4579C12.2717 21.1273 11.2965 21.4607 10.0003 21.4607C8.70396 21.4607 7.72878 21.1273 6.81509 20.4579C5.96562 19.8356 5.17546 18.9226 4.22779 17.8276L4.1782 17.7703C3.51943 17.0092 2.91004 16.1923 2.45375 15.3608C0.824595 12.3918 0.377942 9.25749 0.276419 7.24648C0.190911 5.55273 1.59483 4.33333 3.17088 4.33333H3.47975C4.19312 4.33333 4.77141 3.75503 4.77141 3.04167ZM7.56308 1.75C6.84971 1.75 6.27141 2.3283 6.27141 3.04167C6.27141 4.58346 5.02154 5.83333 3.47975 5.83333H3.17088C2.33075 5.83333 1.73819 6.45149 1.77451 7.17085C1.86996 9.06159 2.29029 11.9448 3.76878 14.6392C4.15772 15.348 4.69628 16.0768 5.31237 16.7886C6.32248 17.9557 7.00457 18.7373 7.70155 19.2479C8.3491 19.7223 9.01145 19.9607 10.0003 19.9607C10.9891 19.9607 11.6514 19.7223 12.2989 19.2479C12.9959 18.7373 13.678 17.9557 14.6881 16.7886C15.3042 16.0768 15.8428 15.348 16.2317 14.6392C17.752 11.8686 18.1546 8.67293 18.2337 6.60819C18.2619 5.8731 17.6561 5.25 16.8184 5.25H16.2291C14.8484 5.25 13.7291 4.13071 13.7291 2.75C13.7291 2.19772 13.2814 1.75 12.7291 1.75H7.56308ZM13.4708 8.416C13.7933 8.67589 13.8441 9.14804 13.5842 9.47057L11.5301 12.0198C11.1576 12.4822 10.829 12.8901 10.5236 13.1753C10.1956 13.4816 9.78794 13.75 9.2502 13.75C8.71246 13.75 8.30476 13.4816 7.97685 13.1753C7.67143 12.8901 7.34278 12.4822 6.97027 12.0198L6.4162 11.3321C6.15631 11.0096 6.20709 10.5375 6.52963 10.2776C6.85216 10.0177 7.32431 10.0685 7.5842 10.391L8.10571 11.0382C8.52078 11.5533 8.78269 11.8755 9.00065 12.0791C9.10308 12.1747 9.16851 12.2173 9.20611 12.2361C9.2341 12.2501 9.2441 12.25 9.24947 12.25H9.25093C9.2563 12.25 9.2663 12.2501 9.29429 12.2361C9.33189 12.2173 9.39732 12.1747 9.49975 12.0791C9.71771 11.8755 9.97962 11.5533 10.3947 11.0382L12.4162 8.52943C12.6761 8.20689 13.1482 8.15611 13.4708 8.416Z" fill="#0E0E2C"/>
</svg>
