<svg width="22" height="24" viewBox="0 0 22 24" fill="none" xmlns="http://www.w3.org/2000/svg">
<path fill-rule="evenodd" clip-rule="evenodd" d="M7.58523 3.2323C8.56564 -0.203083 13.4342 -0.203084 14.4147 3.2323C14.7184 4.2967 15.812 4.92806 16.8857 4.65893C20.351 3.7903 22.7853 8.00664 20.3004 10.5734C19.5305 11.3687 19.5305 12.6314 20.3004 13.4266C22.7853 15.9934 20.351 20.2097 16.8857 19.3411C15.812 19.072 14.7184 19.7033 14.4147 20.7677C13.4342 24.2031 8.56564 24.2031 7.58523 20.7677C7.28146 19.7033 6.18792 19.072 5.11423 19.3411C1.6489 20.2097 -0.785401 15.9934 1.69952 13.4266C2.46944 12.6314 2.46944 11.3687 1.69952 10.5734C-0.785401 8.00664 1.6489 3.7903 5.11423 4.65893C6.18792 4.92806 7.28146 4.2967 7.58523 3.2323ZM12.9722 3.64394C12.406 1.6597 9.59392 1.6597 9.02764 3.64394C8.50172 5.48678 6.60843 6.57987 4.74952 6.11391C2.74798 5.6122 1.34196 8.04752 2.77722 9.53005C4.1102 10.9069 4.1102 13.0931 2.77722 14.47C1.34196 15.9525 2.74798 18.3878 4.74952 17.8861C6.60843 17.4202 8.50172 18.5133 9.02764 20.3561C9.59392 22.3403 12.406 22.3403 12.9722 20.3561C13.4982 18.5133 15.3915 17.4202 17.2504 17.8861C19.2519 18.3878 20.6579 15.9525 19.2227 14.47C17.8897 13.0931 17.8897 10.9069 19.2227 9.53005C20.6579 8.04752 19.2519 5.6122 17.2504 6.11391C15.3915 6.57987 13.4982 5.48678 12.9722 3.64394ZM7.24995 12C7.24995 9.92895 8.92888 8.25001 10.9999 8.25001C13.071 8.25001 14.7499 9.92895 14.7499 12C14.7499 14.0711 13.071 15.75 10.9999 15.75C8.92888 15.75 7.24995 14.0711 7.24995 12ZM10.9999 9.75002C9.75731 9.75002 8.74995 10.7574 8.74995 12C8.74995 13.2427 9.75731 14.25 10.9999 14.25C12.2426 14.25 13.2499 13.2427 13.2499 12C13.2499 10.7574 12.2426 9.75002 10.9999 9.75002Z" fill="#0E0E2C"/>
</svg>
