<svg width="83" height="66" viewBox="0 0 83 66" fill="none" xmlns="http://www.w3.org/2000/svg">
<path d="M70.3114 33.594C68.7298 31.5451 66.4832 30.8442 64.0749 30.5566C66.627 27.717 68.7657 24.5718 69.6464 21.0851C71.4436 13.9501 66.7169 6.38364 58.9168 6.81498C51.1886 7.24632 47.1988 14.3634 41.6992 18.6948C39.219 20.6538 36.4692 22.2713 33.6295 23.6372C32.2097 24.3202 30.6461 25.0211 29.1184 25.3446C28.6691 25.4345 28.3995 25.4704 27.9862 25.5243C27.8064 25.5423 27.6627 25.5243 27.5369 25.4704C27.6447 25.5423 27.5908 25.3626 27.3212 24.9312C26.3147 22.7206 23.1156 22.1814 21.1746 23.3137C18.9101 24.6437 18.5506 27.2497 19.5571 29.4603C22.882 36.7032 31.5268 34.3668 37.1342 31.8866C42.9033 29.3165 48.1513 25.5064 52.5186 20.9593C54.2619 19.1441 56.1491 16.4842 58.7371 15.9091C60.4445 15.5316 61.1634 16.4123 61.0735 18.0837C60.9657 20.3483 59.1325 22.3971 57.6947 24.0326C55.4122 26.6027 52.95 28.975 50.3619 31.2396C47.2167 33.9714 49.9485 38.6982 53.543 38.9138C55.8255 39.0576 58.0901 39.1834 60.3726 39.3272C60.5703 39.3452 62.0261 39.4889 62.8887 39.5429C62.7809 40.1539 62.6191 41.0346 62.6012 41.0526C62.3675 41.7355 62.044 42.3466 61.6666 42.9756C60.8399 44.3235 59.7435 45.4378 58.5933 46.4802C52.8241 51.6923 44.7904 54.8554 37.3678 56.8324C31.7784 58.3241 34.1507 66.9868 39.7581 65.4951C50.0923 62.7453 61.9182 57.731 68.4782 48.9065C71.4257 44.8268 73.7082 38.0152 70.3114 33.594Z" fill="#FFCE39"/>
<path d="M2.00016 13.318L4.42507 32.5011L11.9383 31.5513L11.3174 26.6395C11.9156 27.2346 12.5997 27.7903 13.3753 28.3061C13.9781 28.713 14.6347 29.0961 15.3451 29.4553C16.5923 30.1048 18.0011 30.6826 19.5727 31.2001C24.044 32.6697 28.7831 33.0198 33.2251 31.5603C34.0829 31.287 34.9427 30.9396 35.7759 30.516C40.1679 28.3011 43.723 24.6802 45.5987 20.095L45.5666 20.1105L45.2611 20.2571C44.9879 20.3882 44.7146 20.5194 44.4399 20.6394C44.1715 20.7643 43.9016 20.8779 43.6318 20.9916C43.3627 21.1109 43.0985 21.2239 42.8273 21.3263C36.673 23.764 31.2689 23.9981 27.1409 23.4911C27.1129 23.4947 27.0954 23.4912 27.0668 23.4891C27.0437 23.4864 27.0206 23.4836 26.9849 23.4711C24.3679 23.1369 22.2828 22.5138 20.8384 21.9688C20.6775 21.9096 20.5277 21.849 20.3787 21.7939C20.175 21.7117 19.9777 21.6343 19.7901 21.5443C19.7474 21.5213 19.7117 21.5088 19.669 21.4858C19.513 21.4202 19.38 21.3575 19.2589 21.2989C19.0468 21.195 18.8824 21.1078 18.7725 21.0478C18.6997 21.0115 18.6507 20.9836 18.6325 20.9745C18.6206 20.9703 18.6087 20.9662 18.6087 20.9662C17.6694 20.4597 16.7985 19.865 15.996 19.1821L22.1218 18.4077L21.1721 10.8945L2.00016 13.318Z" fill="#FFCE39"/>
<path d="M82.9281 48.2414L76.6557 17.5085C76.476 16.5919 75.9188 15.8011 75.128 15.2799C74.3373 14.7767 73.3847 14.597 72.4681 14.7947L69.2331 15.4596L65.4049 16.2504L64.6501 12.5122L60.8399 13.285L59.7975 8.12687C59.3662 6.00612 57.2275 4.62224 55.0887 5.07155L35.1213 9.1513C32.9646 9.58264 31.5448 11.6854 31.9761 13.8062L33.0365 18.9643L28.8849 19.809L29.6397 23.5113L26.1351 24.2302L23.0618 24.8592C22.1272 25.039 21.3364 25.5781 20.7972 26.351C20.2581 27.1417 20.0783 28.0763 20.2581 28.9929L26.5305 59.7258C26.7102 60.6424 27.2673 61.4332 28.0581 61.9544C28.6332 62.3319 29.2982 62.5116 29.9812 62.5116C30.2148 62.5116 30.4664 62.4936 30.7181 62.4397L33.7913 61.8107L43.2089 59.8876L72.8455 53.8489L76.8893 53.0221L80.1244 52.3571C82.0474 51.9797 83.3055 50.1285 82.9281 48.2414ZM73.5824 51.8719L68.9096 52.8244L64.3266 30.3588L66.9326 30.0533L66.2317 23.8348L63.0685 24.1763L61.9542 18.7666L63.8413 18.3892L67.8312 17.5804L74.7686 51.6562L73.5824 51.8719ZM62.1699 28.7952L56.1311 29.4782L55.8256 26.8003L64.6501 25.8118L64.9556 28.4717L62.1699 28.7952ZM40.2614 50.6857C37.8352 51.6023 35.5706 49.8949 35.5706 47.6124C35.5706 47.3788 35.5886 47.1631 35.6425 46.9474C35.948 45.4377 37.314 44.2875 38.9315 44.2875C40.7647 44.3055 42.2564 45.7972 42.2564 47.6124C42.2564 48.9424 41.4656 50.1645 40.2614 50.6857ZM36.9545 42.8677C36.8646 42.9036 36.7748 42.9575 36.6849 42.9935C36.4872 43.0833 36.3075 43.1912 36.1278 43.299C36.0199 43.3709 35.9301 43.4428 35.8402 43.5147C35.6785 43.6225 35.5347 43.7483 35.3909 43.8741C35.301 43.964 35.2112 44.0539 35.1213 44.1437C34.9955 44.2875 34.8697 44.4313 34.7619 44.5751C34.69 44.6829 34.6181 44.7728 34.5462 44.8806C34.4384 45.0423 34.3485 45.2041 34.2766 45.3838C34.2227 45.4916 34.1688 45.5995 34.1149 45.7073C34.0609 45.923 34.007 46.1207 33.9531 46.3364C33.9351 46.4442 33.8992 46.534 33.8632 46.6419C33.8093 46.9654 33.7734 47.2889 33.7734 47.6124C33.7734 47.9898 33.8273 48.3672 33.8992 48.7267C33.9172 48.8166 33.9531 48.8884 33.9711 48.9783C34.043 49.2479 34.1328 49.5175 34.2586 49.7691C34.2946 49.841 34.3305 49.9129 34.3665 49.9848C34.4923 50.2364 34.654 50.488 34.8158 50.7037C34.8517 50.7576 34.9056 50.8115 34.9416 50.8654C35.1213 51.0991 35.337 51.2968 35.5526 51.4945C35.6066 51.5304 35.6425 51.5843 35.6964 51.6203C35.9301 51.8 36.1637 51.9617 36.4333 52.1055C36.5052 52.1415 36.5591 52.1774 36.631 52.2134C36.8826 52.3392 37.1342 52.429 37.4038 52.5189C37.4937 52.5548 37.5835 52.5728 37.6734 52.6087C37.925 52.6627 38.1946 52.6986 38.4462 52.7346C38.5541 52.7525 38.6619 52.7705 38.7877 52.7705C38.8236 52.7705 38.8596 52.7885 38.9135 52.7885C39.2011 52.7885 39.5066 52.7525 39.7942 52.6986C39.8301 52.6986 39.866 52.6986 39.884 52.6986L41.0702 58.5397L35.1752 59.7438L28.2558 25.6321L29.9992 25.2726L34.1508 24.4279L37.8531 42.5981C37.5476 42.67 37.2421 42.7598 36.9545 42.8677ZM37.2061 15.8191C37.1163 15.3338 37.2061 14.8486 37.4937 14.4352C37.7812 14.0218 38.2126 13.7163 38.7338 13.6264L53.5072 10.6071C54.5496 10.3914 55.556 11.0384 55.7717 12.0449L56.221 14.2375L54.6035 14.561L55.3583 18.2633L39.7043 21.4624L39.1292 18.6408L38.8416 17.7781L37.9789 17.9578L37.6554 18.0297L37.2061 15.8191ZM63.6436 16.5739L63.5538 16.5919L57.1017 17.9039L56.7242 15.9629L63.2482 14.6329L63.6436 16.5739ZM33.7374 13.4467C33.5038 12.2965 34.2766 11.1642 35.4808 10.9126L55.4302 6.85082C56.6344 6.59921 57.7846 7.35405 58.0182 8.50429L59.0606 13.6624L57.9643 13.896L57.515 11.7034C57.1196 9.72642 55.1606 8.45037 53.1297 8.86374L38.3564 11.8831C37.3858 12.0808 36.5411 12.638 36.002 13.4467C35.4448 14.2735 35.2471 15.244 35.4448 16.1965L35.8941 18.3712L34.7978 18.6048L33.7374 13.4467ZM31.0056 21.2108L33.396 20.7256L37.4398 19.8988L37.8352 21.8399L35.5526 22.3072L31.401 23.1519L31.0056 21.2108ZM30.3586 60.6784C29.8913 60.7682 29.424 60.6964 29.0286 60.4268C28.6512 60.1752 28.3816 59.7977 28.2918 59.3664L22.0194 28.6335C21.9295 28.1842 22.0194 27.7348 22.271 27.3574C22.5406 26.962 22.936 26.7104 23.4033 26.6026L26.4765 25.9735L33.4139 60.0494L30.3586 60.6784ZM41.5914 51.9977C43.1011 51.0631 44.0536 49.4096 44.0536 47.6124C44.0536 45.0603 42.1485 42.9575 39.6863 42.5801L35.9121 24.0864L38.1946 23.6191L38.3024 23.6012L39.0753 23.4394L55.7178 20.0426L60.1929 19.126L61.2713 24.4099L53.8486 25.2367L54.5496 31.4731L62.5293 30.5745L67.1483 53.1839L42.8495 58.1443L41.5914 51.9977ZM79.7649 50.6138L76.5299 51.2788L69.5925 17.203L72.8276 16.538C72.9534 16.52 73.0792 16.502 73.205 16.502C73.5465 16.502 73.8879 16.5919 74.1755 16.7896C74.5529 17.0412 74.8225 17.4186 74.9124 17.85L81.1848 48.5829C81.3465 49.5175 80.7175 50.4161 79.7649 50.6138Z" fill="#0E0E2C"/>
</svg>
