<svg width="100" height="67" viewBox="0 0 100 67" fill="none" xmlns="http://www.w3.org/2000/svg">
<g clip-path="url(#clip0_5459_187129)">
<path d="M95.4686 50.1645L83.5773 65.4115L77.6057 60.7541L80.6505 56.8501C79.8322 57.0558 78.9601 57.1837 78.0298 57.2304C77.3037 57.272 76.5436 57.2656 75.7494 57.2111C74.3454 57.1316 72.8393 56.908 71.224 56.5493C66.6299 55.5264 62.378 53.4045 59.3064 49.8792C58.7089 49.2058 58.1476 48.4676 57.6481 47.6776C55.0057 43.5287 53.8016 38.5993 54.5336 33.6996L54.5533 33.7293L54.7409 34.0115C54.9087 34.2639 55.0765 34.5164 55.2513 34.7599C55.4181 35.0045 55.5919 35.2401 55.7656 35.4758C55.936 35.7159 56.1053 35.948 56.286 36.1748C60.329 41.4161 64.8538 44.3801 68.6607 46.0547C68.683 46.0721 68.6998 46.078 68.7255 46.0909C68.7467 46.1003 68.768 46.1098 68.8051 46.1172C71.2251 47.1679 73.3357 47.6984 74.8556 47.9685C75.0242 47.9999 75.1839 48.0243 75.3401 48.0532C75.5572 48.0867 75.7664 48.1211 75.9736 48.1396C76.022 48.1417 76.0591 48.1491 76.1076 48.1512C76.2752 48.1746 76.4216 48.1887 76.5556 48.2002C76.791 48.2193 76.9769 48.2285 77.102 48.2331C77.1831 48.2392 77.2395 48.2402 77.2598 48.2417C77.2721 48.2442 77.2845 48.2467 77.2845 48.2467C78.3507 48.2916 79.4032 48.2258 80.4421 48.0491L75.5732 44.2518L80.2305 38.2802L95.4686 50.1645Z" fill="#FFCE39"/>
<path d="M67.8256 44.8543C66.0913 40.2725 67.16 34.9092 67.859 30.2215C68.5789 25.3461 71.2407 14.4289 63.5519 13.8734C60.2278 13.6377 57.9866 16.2184 56.5109 18.8456C54.8712 21.7676 53.5381 24.8668 52.3917 28.012C50.2316 33.8679 48.7537 39.9428 46.5193 45.7702C45.6227 48.1086 44.706 50.8991 42.5533 52.3386C42.3984 52.143 42.2589 51.8852 42.1771 51.7431C41.4291 50.4516 41.0177 48.9485 40.6795 47.499C39.3635 41.7152 40.3105 35.6921 41.7453 30.0179C42.5258 26.8942 43.4679 23.8155 44.3478 20.7213C45.2003 17.6763 46.2233 14.4753 46.164 11.2765C45.9894 4.15928 39.8854 -0.0629705 33.0843 1.77408C18.0186 5.82358 11.9301 22.2133 10.9308 36.2117C10.5258 41.9317 19.4051 42.3135 19.8222 36.6067C20.4541 27.7636 22.9443 18.16 30.547 12.722C31.5349 12.0109 36.756 8.63142 37.2715 10.9067C37.6598 12.6479 36.7152 14.9338 36.2779 16.5628C35.5842 19.1492 34.8031 21.7193 34.0843 24.3046C31.5366 33.503 29.6882 43.3868 32.9634 52.6551C34.6408 57.3854 37.9661 62.1259 43.6556 61.2336C49.2304 60.3739 52.2024 55.221 54.1868 50.4898C55.7618 46.7596 56.9536 42.874 58.1574 39.0015C58.1969 42.363 58.706 45.632 59.9326 48.8952C60.7769 51.1348 63.9542 51.8422 65.9241 50.8349C68.2296 49.6413 68.6688 47.119 67.8256 44.8543ZM42.3468 52.4553C42.3337 52.4673 42.3217 52.4542 42.3468 52.4553V52.4553Z" fill="#FFCE39"/>
<path d="M71.441 61.0391L57.32 29.9812L66.2026 21.0987C68.1075 19.2145 69.2049 16.7713 69.2049 14.3902C69.2049 12.6095 68.6044 11.0566 67.4449 9.89712C64.6911 7.14331 59.6804 7.70236 56.2641 11.1187L54.5041 12.8787C54.3178 13.0443 54.1314 13.1685 53.9451 13.3549L50.86 16.4193L50.9014 16.4607L46.6568 20.7053L13.5905 8.53057C12.2861 7.78518 10.6711 8.03364 9.6565 9.15173L8.78688 10.1456C7.64809 11.4086 7.75161 13.3549 9.07675 14.5765L33.9024 33.4597L26.6348 40.7273C26.1793 41.1828 25.848 41.6176 25.6203 42.0317L24.6264 43.7295L14.9778 40.1682C14.2117 39.7127 13.1971 39.8369 12.5552 40.5202L12.2032 40.9136C11.5407 41.6797 11.5821 42.8185 12.4103 43.5846L20.8995 50.0446L19.1395 53.0469C18.6219 53.9786 18.4148 54.9725 18.5391 55.8835L17.7108 56.7117C17.276 57.1258 17.0276 57.6849 17.0276 58.2853C17.0276 58.8858 17.276 59.4448 17.6694 59.8175C18.0835 60.2523 18.6426 60.5008 19.243 60.5008C19.8435 60.5008 20.4025 60.2523 20.7959 59.8382L21.7898 58.8444C21.8312 58.8444 21.8726 58.8651 21.9347 58.8651C22.7215 58.8651 23.529 58.6373 24.2951 58.2025L27.96 56.0699L35.1447 64.2278C35.4967 64.559 35.9729 64.7454 36.4284 64.7454C36.9046 64.7454 37.4016 64.559 37.7743 64.1656L38.147 63.7722C38.7681 63.1304 38.8509 62.1779 38.3747 61.4532L34.2751 52.4257L35.0205 51.9909C35.4967 51.7218 35.9522 51.3698 36.3663 50.9557L44.9176 42.4044L65.8299 66.0291C66.4304 66.6089 67.1965 66.8987 67.9833 66.8987C68.7908 66.8987 69.5983 66.5882 70.1987 65.967L71.1305 64.9938C72.1864 63.9172 72.3107 62.2607 71.441 61.0391ZM36.4491 62.5713L29.782 55.0139L32.453 53.461L36.5319 62.4471L36.4491 62.5713ZM63.573 13.7069C64.3391 14.473 64.7532 15.529 64.7532 16.7713C64.7532 17.9101 64.4012 19.0903 63.7594 20.1876C63.7594 20.0634 63.7594 19.9392 63.7594 19.8149C63.7594 18.055 63.1175 16.4607 61.958 15.3012C60.7985 14.1417 59.2249 13.5205 57.4443 13.5205C57.32 13.5205 57.1751 13.5205 57.0509 13.5205C59.3699 12.1747 62.0201 12.154 63.573 13.7069ZM65.9748 11.3672C66.7409 12.1333 67.1343 13.1685 67.1343 14.3902C67.1343 15.0113 66.9894 15.6532 66.8031 16.2743C66.6995 14.7007 66.0991 13.2721 65.0431 12.2161C63.9871 11.1808 62.6206 10.6218 61.1298 10.4976C62.9726 9.93853 64.7946 10.187 65.9748 11.3672ZM10.4019 12.9822C9.96708 12.5888 9.92567 11.9676 10.3191 11.5328L11.2094 10.539C11.4164 10.3112 11.6856 10.187 11.9755 10.187C12.1825 10.187 12.3689 10.2491 12.5552 10.3526L45.0211 22.341L35.3724 31.9896L10.4019 12.9822ZM13.9011 42.1352L14.0253 41.9903C14.0253 41.9903 14.046 42.011 14.0874 42.0317L23.5911 45.5309L22.9079 46.6904L21.9761 48.264L13.9011 42.1352ZM19.1602 58.2025L19.2016 58.1818L19.4087 57.9748L25.0819 52.4672L25.1233 52.55L19.243 58.451L19.1602 58.2025ZM34.8962 49.5063C34.6063 49.7962 34.3165 50.0239 33.9852 50.2103L27.8978 53.7302L26.5727 54.4963L25.6203 55.0346L26.6141 54.0408C27.0282 53.6267 27.256 53.0676 27.256 52.4879C27.256 51.9081 27.0282 51.3284 26.6141 50.935C26.2 50.5209 25.641 50.2931 25.0612 50.2931C24.4608 50.2931 23.9224 50.5209 23.4876 50.935L21.8519 52.5914L22.5766 51.3491L24.2744 48.4503L27.4423 43.067C27.5873 42.7978 27.7943 42.5286 28.1049 42.218L35.5795 34.7434L48.7895 21.5335L52.9098 17.4131C54.0693 16.44 55.4151 15.8188 56.761 15.6532C58.2518 15.4668 59.5976 15.8809 60.5087 16.792C61.2747 17.5581 61.6889 18.614 61.6889 19.8564C61.6889 21.6163 60.8192 23.5212 59.3699 24.9913L59.3906 25.012L34.8962 49.5063ZM69.6397 63.5652L68.7079 64.5383C68.3145 64.9317 67.6727 64.9524 67.3207 64.6212L46.367 40.9343L55.7464 31.5548L69.5776 61.9916L69.7018 62.1986C70.0331 62.6127 69.9917 63.1925 69.6397 63.5652Z" fill="#0E0E2C"/>
</g>
<defs>
<clipPath id="clip0_5459_187129">
<rect width="100" height="67" fill="white"/>
</clipPath>
</defs>
</svg>
