
<svg width="24" height="24" viewBox="0 0 24 24" fill="none" xmlns="http://www.w3.org/2000/svg">
<path fill-rule="evenodd" clip-rule="evenodd" d="M11.9548 1.25H12.0452C13.8818 1.24999 15.3214 1.24999 16.4635 1.37373C17.6291 1.50001 18.5734 1.76232 19.3798 2.34815C19.8679 2.70281 20.2972 3.13209 20.6518 3.62024C21.2377 4.42656 21.5 5.37094 21.6263 6.53648C21.75 7.67861 21.75 9.1182 21.75 10.9547V13.011C21.75 14.1711 21.75 15.1685 21.7206 16.0257C21.6564 17.8991 21.4537 19.2761 20.6518 20.3798C20.2972 20.8679 19.8679 21.2972 19.3798 21.6518C18.2761 22.4537 16.8991 22.6564 15.0257 22.7206C14.1685 22.75 13.1711 22.75 12.011 22.75H11.9547C10.1182 22.75 8.67861 22.75 7.53648 22.6263C6.37094 22.5 5.42656 22.2377 4.62024 21.6518C4.13209 21.2972 3.70281 20.8679 3.34815 20.3798C2.76232 19.5734 2.50001 18.6291 2.37373 17.4635C2.24999 16.3214 2.24999 14.8818 2.25 13.0452V10.9548C2.24999 9.11821 2.24999 7.67861 2.37373 6.53648C2.50001 5.37094 2.76232 4.42656 3.34815 3.62024C3.70281 3.13209 4.13209 2.70281 4.62024 2.34815C5.42656 1.76232 6.37094 1.50001 7.53648 1.37373C8.67861 1.24999 10.1182 1.24999 11.9548 1.25ZM7.69805 2.865C6.66013 2.97745 6.00992 3.19259 5.50191 3.56168C5.14111 3.82382 4.82382 4.14111 4.56168 4.50191C4.19259 5.00992 3.97745 5.66013 3.865 6.69805C3.75103 7.74999 3.75 9.10843 3.75 11V13C3.75 14.8916 3.75103 16.25 3.865 17.302C3.97745 18.3399 4.19259 18.9901 4.56168 19.4981C4.82382 19.8589 5.14111 20.1762 5.50191 20.4383C6.00992 20.8074 6.66013 21.0225 7.69805 21.135C8.74999 21.249 10.1084 21.25 12 21.25C12.8484 21.25 13.5918 21.25 14.2518 21.2392C14.2562 20.7645 14.271 20.4151 14.3208 20.1005C14.7105 17.6401 16.6401 15.7105 19.1005 15.3208C19.4151 15.271 19.7645 15.2562 20.2392 15.2518C20.25 14.5918 20.25 13.8483 20.25 13V11C20.25 9.10843 20.249 7.74999 20.135 6.69805C20.0225 5.66013 19.8074 5.00992 19.4383 4.50191C19.1762 4.14111 18.8589 3.82382 18.4981 3.56168C17.9901 3.19259 17.3399 2.97745 16.302 2.865C15.25 2.75103 13.8916 2.75 12 2.75C10.1084 2.75 8.74999 2.75103 7.69805 2.865ZM20.1826 16.7528C19.7776 16.7575 19.5402 16.7699 19.3352 16.8023C17.5166 17.0904 16.0904 18.5166 15.8023 20.3352C15.7699 20.5402 15.7575 20.7776 15.7528 21.1826C17.1131 21.0888 17.8986 20.8738 18.4981 20.4383C18.8589 20.1762 19.1762 19.8589 19.4383 19.4981C19.8738 18.8986 20.0888 18.1131 20.1826 16.7528ZM11 8.75L8 8.75C7.58579 8.75 7.25 8.41421 7.25 8C7.25 7.58579 7.58579 7.25 8 7.25L11 7.25C11.4142 7.25 11.75 7.58579 11.75 8C11.75 8.41421 11.4142 8.75 11 8.75ZM16.75 12C16.75 12.4142 16.4142 12.75 16 12.75L8 12.75C7.58579 12.75 7.25 12.4142 7.25 12C7.25 11.5858 7.58579 11.25 8 11.25L16 11.25C16.4142 11.25 16.75 11.5858 16.75 12Z" fill="#0E0E2C"/>
</svg>
