<svg width="82" height="66" viewBox="0 0 82 66" fill="none" xmlns="http://www.w3.org/2000/svg">
<g clip-path="url(#clip0_3528_70528)">
<path d="M8.89119 32.7373L3.7948 14.0853L11.1 12.0892L12.405 16.8651C12.73 16.0865 13.1496 15.3114 13.669 14.5381C14.0703 13.9316 14.5304 13.3265 15.0494 12.7229C15.9535 11.6458 17.0341 10.5731 18.2883 9.49384C21.8576 6.42585 26.1024 4.28981 30.765 3.93944C31.6621 3.86384 32.5894 3.85599 33.5212 3.92875C38.4264 4.29538 43.096 6.28129 46.5829 9.80044L46.5473 9.79847L46.209 9.77983C45.9063 9.76316 45.6036 9.7465 45.3039 9.7407C45.0082 9.72798 44.7154 9.72614 44.4226 9.7243C44.1283 9.71702 43.841 9.71371 43.5512 9.72275C36.9325 9.8243 31.8497 11.6749 28.2295 13.7221C28.2023 13.7295 28.1875 13.7394 28.1618 13.7523C28.1415 13.7637 28.1212 13.7751 28.0931 13.8003C25.8029 15.11 24.1146 16.4832 22.9885 17.5392C22.8624 17.6554 22.7472 17.7687 22.6306 17.8766C22.4739 18.0305 22.3211 18.1775 22.1822 18.3323C22.1516 18.3699 22.1234 18.3952 22.0927 18.4328C21.9736 18.553 21.8747 18.6618 21.7853 18.7623C21.6291 18.9394 21.5104 19.0829 21.4319 19.1803C21.3785 19.2417 21.3439 19.2862 21.3305 19.3016C21.3211 19.31 21.3118 19.3184 21.3118 19.3184C20.6376 20.1456 20.0603 21.0282 19.58 21.9661L25.5363 20.3387L27.5323 27.6439L8.89119 32.7373Z" fill="#FFCE39"/>
<path d="M66.3916 51.4868C62.2961 49.2974 57.4456 49.807 52.9914 50.0146C51.0475 50.109 48.9902 50.26 47.1218 49.5994C46.2347 49.2974 45.442 48.769 44.6682 48.2594C44.5361 48.165 44.1209 47.8442 43.7812 47.5988C44.253 46.5985 45.1967 44.8056 45.3854 44.5791C46.5367 43.2202 47.9522 42.0689 49.3677 40.9742C56.1622 35.7274 63.938 30.0842 67.1465 21.7421C70.7325 12.4186 63.9003 3.83121 55.0864 1.28329C44.9702 -1.6421 33.4196 0.679336 24.2848 5.5487C18.8682 8.45521 23.6809 16.7029 29.1165 13.7964C35.4957 10.3992 43.3282 8.66282 50.519 10.0217C53.501 10.5879 57.0303 11.8336 58.276 14.8911C59.3329 17.5145 57.5211 20.2889 55.9357 22.2706C53.5576 25.2904 50.6322 28.027 47.6314 30.4051C45.0268 32.4623 42.2335 34.3119 39.8177 36.6145C37.2509 39.068 35.0239 42.201 34.2878 45.7304C33.212 50.8073 35.8165 53.9026 39.8366 56.5071C43.7245 59.0362 48.0088 59.7722 52.5762 59.5835C54.7467 59.4891 56.9171 59.2626 59.0876 59.357C59.8048 59.3948 60.4653 59.4891 61.1448 59.659C59.4839 64.3019 66.7879 68.0388 69.9587 63.3393C72.7897 59.1683 70.5815 53.7138 66.3916 51.4868Z" fill="#FFCE39"/>
<path d="M80.7355 21.648L74.3185 17.6657L73.8089 18.4207C73.3937 19.0246 72.5821 19.1945 71.9404 18.7981C71.3176 18.4207 71.11 17.6091 71.4497 16.9485L71.8649 16.1558L65.7122 12.3245C65.1082 11.947 64.4099 11.8338 63.7116 11.9848C63.051 12.1358 62.4848 12.551 62.1073 13.1172V12.1547C62.1073 9.17264 59.6915 6.75684 56.7095 6.75684H23.3789C20.4158 6.75684 18 9.17264 18 12.1547V59.7913C18 62.7734 20.4158 65.1892 23.3789 65.1892H56.7473C59.7293 65.1892 62.1451 62.7734 62.1451 59.7913V56.6017L74.3751 36.9355C74.8847 36.1051 75.0357 35.1426 74.8658 34.2555C75.6208 34.1611 76.3379 33.7459 76.772 33.0476L81.6037 25.3095L81.6225 25.2906C82.3775 24.0072 81.9811 22.403 80.7355 21.648ZM60.2389 59.7913C60.2389 61.7164 58.6724 63.2641 56.7661 63.2641H23.3789C21.4727 63.2641 19.9251 61.6976 19.9251 59.7913V12.1547C19.9251 10.2296 21.4727 8.68193 23.3789 8.68193H56.7473C58.6724 8.68193 60.22 10.2484 60.22 12.1547V16.1558V23.6297V25.8757V59.6781V59.7913H60.2389ZM72.752 35.9164L62.1451 52.978V27.0647L72.1292 33.293C73.0351 33.8403 73.2993 35.0105 72.752 35.9164ZM79.9805 24.3092L75.1489 32.0284C74.9224 32.387 74.4883 32.4814 74.1486 32.2738L62.1451 24.7999V23.3466L62.1828 23.3655L66.486 16.4578L65.9009 16.0992L62.1451 22.1387V16.6843L63.7116 14.1552C63.8248 13.9854 63.9758 13.8721 64.1646 13.8155C64.3533 13.7778 64.542 13.7966 64.7119 13.9099L69.4491 16.8542C69.1472 18.1942 69.7134 19.6286 70.9401 20.3835C72.1669 21.1384 73.6957 21.0063 74.7526 20.157L79.7352 23.2523C80.0938 23.4787 80.1881 23.9317 79.9805 24.3092Z" fill="#0E0E2C"/>
<path d="M67.5913 17.1664L63.2963 24.0742L63.8732 24.433L68.1683 17.5252L67.5913 17.1664Z" fill="#0E0E2C"/>
<path d="M72.2991 27.2532L75.885 29.4803L79.3578 23.9126L75.7718 21.6855L72.2991 27.2532ZM78.0366 24.2335L75.5831 28.178L73.6202 26.9513L76.0738 23.0067L78.0366 24.2335Z" fill="#0E0E2C"/>
<path d="M40.0631 41.1257C46.7066 41.1257 52.1232 35.7279 52.1232 29.0655C52.1232 22.4032 46.7254 17.0054 40.0631 17.0054C33.4196 17.0054 28.0029 22.4032 28.0029 29.0655C28.0029 35.7279 33.4196 41.1257 40.0631 41.1257ZM40.0631 17.9679C46.1781 17.9679 51.1607 22.9505 51.1607 29.0655C51.1607 35.1805 46.1781 40.1631 40.0631 40.1631C33.9481 40.1631 28.9655 35.1805 28.9655 29.0655C28.9655 22.9505 33.9481 17.9679 40.0631 17.9679Z" fill="#0E0E2C"/>
<path d="M43.4226 29.5562H36.7036L36.7225 30.0469C36.8923 35.0106 38.4211 39.1816 40.0631 39.1816C41.7051 39.1816 43.2338 34.9917 43.4037 30.0469L43.4226 29.5562ZM40.0631 38.238C39.5346 38.238 37.9681 35.5768 37.7039 30.5187H42.4223C42.1581 35.5768 40.5916 38.238 40.0631 38.238Z" fill="#0E0E2C"/>
<path d="M44.3852 30.0277C44.2908 33.1984 43.668 36.0861 42.7243 37.9545L42.177 39.0115L43.2905 38.634C47.0086 37.3695 49.6698 34.01 50.0661 30.1032L50.1227 29.5747H44.3852V30.0277ZM49.0658 30.5184C48.594 33.4438 46.7066 35.9728 44.0644 37.2751C44.7627 35.4632 45.1968 33.0852 45.3289 30.5184H49.0658Z" fill="#0E0E2C"/>
<path d="M35.741 28.1215C35.8354 24.9507 36.4582 22.0631 37.4019 20.1946L37.9492 19.1377L36.8357 19.5152C33.0987 20.7986 30.4376 24.1392 30.0412 28.0649L29.9846 28.5933H35.7222L35.741 28.1215ZM31.0604 27.6308C31.5322 24.7054 33.4196 22.1763 36.0619 20.8741C35.3636 22.6859 34.9295 25.064 34.7974 27.6308H31.0604Z" fill="#0E0E2C"/>
<path d="M36.8168 38.6154L37.9304 38.9929L37.383 37.936C36.4205 36.0675 35.8165 33.1799 35.7222 30.0091L35.7033 29.5562H29.9846L30.0412 30.0846C30.4376 33.9914 33.0987 37.3509 36.8168 38.6154ZM34.7974 30.5187C34.9106 33.0855 35.3636 35.4636 36.0619 37.2754C33.4196 35.9731 31.5322 33.463 31.0604 30.5187H34.7974Z" fill="#0E0E2C"/>
<path d="M44.3851 28.1216L44.404 28.5746H50.1415L50.0849 28.065C49.6886 24.1582 47.0274 20.7987 43.3093 19.5342L42.1958 19.1567L42.7431 20.2137C43.6868 22.0633 44.2908 24.9509 44.3851 28.1216ZM49.0657 27.6309H45.3288C45.2156 25.0641 44.7626 22.6861 44.0643 20.8742C46.7254 22.1765 48.5939 24.6867 49.0657 27.6309Z" fill="#0E0E2C"/>
<path d="M36.7036 28.5747H43.4037L43.3848 28.084C43.215 23.1203 41.6862 18.9492 40.0442 18.9492C38.4022 18.9492 36.8735 23.1391 36.7036 28.084V28.5747ZM40.0631 19.8929C40.5916 19.8929 42.1581 22.5541 42.4223 27.6122H37.7039C37.9681 22.5541 39.5346 19.8929 40.0631 19.8929Z" fill="#0E0E2C"/>
<path d="M26.04 49.2412H53.7086V45.0513H26.04V49.2412ZM27.0026 46.0138H52.7649V48.2786H27.0026V46.0138Z" fill="#0E0E2C"/>
<path d="M26.04 54.4878H53.7086V50.2979H26.04V54.4878ZM27.0026 51.2604H52.7649V53.5252H27.0026V51.2604Z" fill="#0E0E2C"/>
</g>
<defs>
<clipPath id="clip0_3528_70528">
<rect width="82" height="66" fill="white"/>
</clipPath>
</defs>
</svg>
